HIERARCHY
ROOT Hips
{
	OFFSET 0.000000 89.005402 0.000000
	CHANNELS 6 Xposition Yposition Zposition Xrotation Yrotation Zrotation
	JOINT Spine
	{
		OFFSET 0.116900 10.681000 0.373400
		CHANNELS 3 Xrotation Yrotation Zrotation
		JOINT Spine1
		{
			OFFSET 0.000000 13.840401 0.053500
			CHANNELS 3 Xrotation Yrotation Zrotation
			JOINT Spine2
			{
				OFFSET 0.000000 14.712700 -0.366200
				CHANNELS 3 Xrotation Yrotation Zrotation
				JOINT Neck
				{
					OFFSET 0.000000 35.415497 -3.314200
					CHANNELS 3 Xrotation Yrotation Zrotation
					JOINT Head
					{
						OFFSET 0.000000 16.899200 1.218300
						CHANNELS 3 Xrotation Yrotation Zrotation
						JOINT HeadTop_End
						{
							OFFSET 0.000000 22.206207 2.192500
							CHANNELS 3 Xrotation Yrotation Zrotation
							End Site
							{
								OFFSET 0.000000 22.314178 0.000000
							}
						}
					}
				}
				JOINT LeftShoulder
				{
					OFFSET 12.896400 26.716293 -4.548400
					CHANNELS 3 Xrotation Yrotation Zrotation
					JOINT LeftArm
					{
						OFFSET 19.027000 -4.857010 -1.718400
						CHANNELS 3 Xrotation Yrotation Zrotation
						JOINT LeftForeArm
						{
							OFFSET 24.179897 0.000000 0.000000
							CHANNELS 3 Xrotation Yrotation Zrotation
							JOINT LeftHand
							{
								OFFSET 27.156403 0.000000 0.000000
								CHANNELS 3 Xrotation Yrotation Zrotation
								JOINT LeftHandIndex1
								{
									OFFSET 16.441200 0.000000 0.000000
									CHANNELS 3 Xrotation Yrotation Zrotation
									JOINT LeftHandIndex2
									{
										OFFSET 4.821899 0.000000 0.000000
										CHANNELS 3 Xrotation Yrotation Zrotation
										JOINT LeftHandIndex3
										{
											OFFSET 6.386497 0.000000 0.000000
											CHANNELS 3 Xrotation Yrotation Zrotation
											JOINT LeftHandIndex4
											{
												OFFSET 5.188988 0.000000 0.000000
												CHANNELS 3 Xrotation Yrotation Zrotation
												End Site
												{
													OFFSET -0.178703 5.185913 0.000177
												}
											}
										}
									}
								}
								JOINT LeftHandThumb1
								{
									OFFSET 6.534897 -5.032593 5.900300
									CHANNELS 3 Xrotation Yrotation Zrotation
									JOINT LeftHandThumb2
									{
										OFFSET 3.818176 -2.204422 2.204423
										CHANNELS 3 Xrotation Yrotation Zrotation
										JOINT LeftHandThumb3
										{
											OFFSET 3.252098 -1.877594 1.877601
											CHANNELS 3 Xrotation Yrotation Zrotation
											JOINT LeftHandThumb4
											{
												OFFSET 5.251778 -3.032120 3.032117
												CHANNELS 3 Xrotation Yrotation Zrotation
												End Site
												{
													OFFSET 0.000023 6.780014 0.000000
												}
											}
										}
									}
								}
							}
						}
					}
				}
				JOINT RightShoulder
				{
					OFFSET -12.896300 26.716293 -4.548400
					CHANNELS 3 Xrotation Yrotation Zrotation
					JOINT RightArm
					{
						OFFSET -19.027000 -4.857010 -1.718400
						CHANNELS 3 Xrotation Yrotation Zrotation
						JOINT RightForeArm
						{
							OFFSET -24.179897 0.000000 0.000000
							CHANNELS 3 Xrotation Yrotation Zrotation
							JOINT RightHand
							{
								OFFSET -27.156403 0.000000 0.000000
								CHANNELS 3 Xrotation Yrotation Zrotation
								JOINT RightHandThumb1
								{
									OFFSET -6.591202 -4.852203 5.988100
									CHANNELS 3 Xrotation Yrotation Zrotation
									JOINT RightHandThumb2
									{
										OFFSET -3.818176 -2.204422 2.204423
										CHANNELS 3 Xrotation Yrotation Zrotation
										JOINT RightHandThumb3
										{
											OFFSET -3.252098 -1.877594 1.877601
											CHANNELS 3 Xrotation Yrotation Zrotation
											JOINT RightHandThumb4
											{
												OFFSET -5.251778 -3.032120 3.032117
												CHANNELS 3 Xrotation Yrotation Zrotation
												End Site
												{
													OFFSET -0.000023 6.780014 0.000000
												}
											}
										}
									}
								}
								JOINT RightHandIndex1
								{
									OFFSET -16.029404 0.000000 0.000000
									CHANNELS 3 Xrotation Yrotation Zrotation
									JOINT RightHandIndex2
									{
										OFFSET -5.213303 0.000000 0.000000
										CHANNELS 3 Xrotation Yrotation Zrotation
										JOINT RightHandIndex3
										{
											OFFSET -6.386528 0.000000 0.000000
											CHANNELS 3 Xrotation Yrotation Zrotation
											JOINT RightHandIndex4
											{
												OFFSET -5.189026 0.000000 0.000000
												CHANNELS 3 Xrotation Yrotation Zrotation
												End Site
												{
													OFFSET 0.236702 5.183624 0.001972
												}
											}
										}
									}
								}
							}
						}
					}
				}
			}
		}
	}
	JOINT LeftUpLeg
	{
		OFFSET 14.073000 -7.904099 -1.463000
		CHANNELS 3 Xrotation Yrotation Zrotation
		JOINT LeftLeg
		{
			OFFSET -0.109806 -34.073280 4.093200
			CHANNELS 3 Xrotation Yrotation Zrotation
			JOINT LeftFoot
			{
				OFFSET 0.109806 -29.899420 -6.319000
				CHANNELS 3 Xrotation Yrotation Zrotation
				JOINT LeftToeBase
				{
					OFFSET 1.551100 -14.988700 20.535801
					CHANNELS 3 Xrotation Yrotation Zrotation
					JOINT LeftToe_End
					{
						OFFSET 0.221200 0.570800 13.248301
						CHANNELS 3 Xrotation Yrotation Zrotation
						End Site
						{
							OFFSET 0.000000 13.262435 0.000000
						}
					}
				}
			}
		}
	}
	JOINT RightUpLeg
	{
		OFFSET -13.839300 -7.904099 -1.463000
		CHANNELS 3 Xrotation Yrotation Zrotation
		JOINT RightLeg
		{
			OFFSET 0.109694 -34.073219 4.093300
			CHANNELS 3 Xrotation Yrotation Zrotation
			JOINT RightFoot
			{
				OFFSET -0.109694 -29.899384 -6.319200
				CHANNELS 3 Xrotation Yrotation Zrotation
				JOINT RightToeBase
				{
					OFFSET -1.551100 -14.988700 20.535801
					CHANNELS 3 Xrotation Yrotation Zrotation
					JOINT RightToe_End
					{
						OFFSET -0.221200 0.570900 13.248299
						CHANNELS 3 Xrotation Yrotation Zrotation
						End Site
						{
							OFFSET 0.000000 13.262440 0.000000
						}
					}
				}
			}
		}
	}
}
MOTION
Frames: 4
Frame Time: 0.033333
0.872250 71.070976 -6.321596 3.690467 -42.939685 6.137585 11.181470 2.096256 0.498460 12.421887 1.485807 -4.339845 12.430004 1.423572 -4.292827 2.436975 2.382980 -1.969167 -22.577276 29.887989 -1.343609 -0.000001 0.000000 -0.000000 -0.791592 -6.013566 1.094550 -22.343202 1.019675 -42.770867 -0.000008 -122.281833 0.000003 -9.121812 -5.810617 11.212671 0.255310 3.378216 -45.814331 5.654088 5.847762 -88.067448 2.162142 4.544821 -50.866372 0.000003 -0.000001 -0.000002 -6.141222 -11.690808 -6.761705 9.914104 42.595515 3.409875 -0.422819 8.108102 27.509128 -0.000000 -0.000000 -0.000000 11.356754 29.387388 1.644511 -48.748054 32.232595 47.722310 0.000011 112.038018 -0.000003 -34.897007 3.982614 8.074755 -7.341093 13.749657 7.412329 9.855748 -44.489103 -3.903275 -0.115780 -14.513080 -28.973854 0.000000 -0.000000 0.000000 -0.124371 -2.384783 45.108861 4.500580 -4.654546 88.071164 1.723225 -3.618381 50.920105 0.000002 0.000003 -0.000003 -43.239612 -0.321465 18.715514 54.122299 -2.843018 5.923277 -15.698708 -9.811558 -23.251508 -1.594039 0.000002 0.000005 -0.000000 0.000000 -0.000000 -31.368388 -7.904343 -29.634473 68.008132 1.108955 -0.606881 -33.303405 -16.423142 14.578419 -0.013006 -0.000020 0.000002 0.000000 0.000001 -0.000000 
0.861766 71.706894 -5.654430 1.475845 -43.467942 5.178046 10.645217 2.173345 0.098891 12.072317 1.053302 -4.443148 12.117719 0.945022 -4.269445 2.902334 2.627660 -1.402125 -18.661441 30.205501 -1.862538 -0.000002 0.000000 -0.000000 -0.688321 -5.196868 1.566075 -23.800802 2.377660 -42.474884 0.000018 -121.569649 0.000023 -6.801802 -6.328845 10.017937 0.255310 3.378217 -45.814334 5.654084 5.847762 -88.067448 2.162143 4.544818 -50.866376 0.000002 0.000001 -0.000001 -6.141223 -11.690805 -6.761701 9.914102 42.595515 3.409874 -0.422813 8.108100 27.509123 -0.000002 -0.000001 -0.000001 10.954145 28.264914 1.684597 -48.743351 33.689874 49.844306 -0.000002 111.041527 -0.000010 -34.434484 6.124447 8.318855 -7.341097 13.749659 7.412326 9.855744 -44.489096 -3.903274 -0.115780 -14.513081 -28.973854 -0.000000 0.000000 -0.000000 -0.124373 -2.384786 45.108857 4.500585 -4.654549 88.071171 1.723221 -3.618379 50.920109 0.000000 -0.000004 0.000001 -40.191985 1.035681 17.892616 53.238101 -2.791180 6.088988 -16.196979 -9.561565 -22.713301 -1.594026 -0.000017 -0.000004 -0.000000 -0.000000 -0.000000 -29.052408 -8.555344 -30.403364 66.166829 0.843985 -1.590190 -32.398285 -15.803063 15.662071 -0.013002 0.000014 -0.000000 -0.000000 -0.000000 -0.000000 
0.876249 72.278526 -4.911274 -0.482493 -44.260872 4.136446 10.204047 2.254331 -0.242895 11.487045 0.759436 -4.494151 11.558512 0.612497 -4.244756 3.548151 2.991364 -0.819441 -14.540846 30.373346 -2.373103 -0.000002 -0.000000 -0.000000 -0.591640 -4.298461 1.785901 -25.072182 3.401483 -43.350975 0.000003 -120.512677 -0.000019 -4.832003 -6.600275 8.865826 0.255313 3.378217 -45.814331 5.654081 5.847762 -88.067448 2.162141 4.544813 -50.866376 -0.000000 0.000001 0.000001 -6.141222 -11.690807 -6.761695 9.914108 42.595512 3.409874 -0.422810 8.108103 27.509126 0.000001 -0.000001 0.000001 10.539727 27.224837 1.566199 -48.339199 34.805647 52.138809 0.000089 110.003216 -0.000099 -33.597782 8.082346 8.529305 -7.341092 13.749657 7.412325 9.855747 -44.489103 -3.903275 -0.115779 -14.513078 -28.973854 0.000000 0.000000 -0.000000 -0.124371 -2.384785 45.108857 4.500579 -4.654546 88.071171 1.723223 -3.618381 50.920105 0.000001 0.000002 -0.000001 -37.335614 2.195283 17.398153 52.659396 -2.621153 6.092716 -16.925764 -9.270708 -22.187852 -1.594035 -0.000000 -0.000003 -0.000000 0.000002 0.000000 -26.934383 -9.010185 -30.735998 64.244431 0.500708 -2.719719 -31.342932 -15.236832 16.869329 -0.013005 0.000021 0.000009 -0.000000 0.000000 0.000000 
0.903091 72.781693 -4.077727 -2.432657 -45.058355 3.003478 9.944820 2.344680 -0.494655 10.920829 0.609005 -4.448564 11.007397 0.438155 -4.162113 4.049273 3.511866 -0.288393 -10.840243 30.226053 -2.579351 -0.000001 -0.000000 0.000000 -0.530123 -3.822773 1.808913 -26.642261 4.624409 -45.013296 -0.000007 -119.148907 -0.000017 -3.242375 -6.680485 7.604219 0.255306 3.378219 -45.814334 5.654087 5.847761 -88.067448 2.162141 4.544817 -50.866379 -0.000003 -0.000001 0.000000 -6.141229 -11.690806 -6.761699 9.914104 42.595519 3.409873 -0.422818 8.108100 27.509123 -0.000000 -0.000001 -0.000000 10.072325 26.034560 1.286157 -47.956452 35.430647 54.883299 -0.000049 109.384155 0.000040 -32.402072 9.736210 8.753502 -7.341092 13.749657 7.412325 9.855747 -44.489100 -3.903273 -0.115779 -14.513076 -28.973861 -0.000001 -0.000000 0.000000 -0.124372 -2.384786 45.108857 4.500580 -4.654548 88.071164 1.723223 -3.618381 50.920105 0.000001 -0.000000 0.000001 -34.547257 3.211177 16.952319 52.302590 -2.414570 5.935657 -17.807700 -8.987331 -21.587419 -1.594031 0.000010 0.000001 -0.000000 0.000002 0.000000 -24.823696 -9.455144 -31.065886 62.284557 0.108916 -3.894566 -30.268345 -14.603860 18.233023 -0.012999 -0.000006 -0.000006 -0.000000 0.000000 -0.000000 
